<?xml version="1.0" encoding="UTF-8" standalone="no"?>
<!-- Created with Inkscape (http://www.inkscape.org/) -->

<svg
   xmlns:dc="http://purl.org/dc/elements/1.1/"
   xmlns:cc="http://creativecommons.org/ns#"
   xmlns:rdf="http://www.w3.org/1999/02/22-rdf-syntax-ns#"
   xmlns:svg="http://www.w3.org/2000/svg"
   xmlns="http://www.w3.org/2000/svg"
   xmlns:sodipodi="http://sodipodi.sourceforge.net/DTD/sodipodi-0.dtd"
   xmlns:inkscape="http://www.inkscape.org/namespaces/inkscape"
   id="svg3406"
   version="1.1"
   inkscape:version="0.91 r13725"
   width="255.03801"
   height="512.00037"
   viewBox="0 0 255.03801 512.00036"
   sodipodi:docname="silhouette-femme-46.svg">
  <title
     id="title3340">Silhouette Femme 46</title>
  <metadata
     id="metadata3412">
    <rdf:RDF>
      <cc:Work
         rdf:about="">
        <dc:format>image/svg+xml</dc:format>
        <dc:type
           rdf:resource="http://purl.org/dc/dcmitype/StillImage" />
        <dc:title>Silhouette Femme 46</dc:title>
        <cc:license
           rdf:resource="http://creativecommons.org/publicdomain/zero/1.0/" />
        <dc:date>2017-03-05</dc:date>
        <dc:creator>
          <cc:Agent>
            <dc:title>JLouis</dc:title>
          </cc:Agent>
        </dc:creator>
        <dc:rights>
          <cc:Agent>
            <dc:title>Domaine pubic</dc:title>
          </cc:Agent>
        </dc:rights>
        <dc:publisher>
          <cc:Agent>
            <dc:title>inkscape</dc:title>
          </cc:Agent>
        </dc:publisher>
        <dc:subject>
          <rdf:Bag>
            <rdf:li>Silhouette</rdf:li>
            <rdf:li>woman</rdf:li>
            <rdf:li>femme</rdf:li>
          </rdf:Bag>
        </dc:subject>
        <dc:description>Woman in silhouette - Femme en silhouette</dc:description>
      </cc:Work>
      <cc:License
         rdf:about="http://creativecommons.org/publicdomain/zero/1.0/">
        <cc:permits
           rdf:resource="http://creativecommons.org/ns#Reproduction" />
        <cc:permits
           rdf:resource="http://creativecommons.org/ns#Distribution" />
        <cc:permits
           rdf:resource="http://creativecommons.org/ns#DerivativeWorks" />
      </cc:License>
    </rdf:RDF>
  </metadata>
  <defs
     id="defs3410" />
  <sodipodi:namedview
     pagecolor="#ffffff"
     bordercolor="#666666"
     borderopacity="1"
     objecttolerance="10"
     gridtolerance="10"
     guidetolerance="10"
     inkscape:pageopacity="0"
     inkscape:pageshadow="2"
     inkscape:window-width="1238"
     inkscape:window-height="756"
     id="namedview3408"
     showgrid="false"
     fit-margin-top="0"
     fit-margin-left="0"
     fit-margin-right="0"
     fit-margin-bottom="0"
     inkscape:zoom="1.8391926"
     inkscape:cx="55.058566"
     inkscape:cy="261.22492"
     inkscape:window-x="0"
     inkscape:window-y="0"
     inkscape:window-maximized="1"
     inkscape:current-layer="svg3406" />
  <g
     id="g3416"
     transform="matrix(1.7237789,0,0,1.7237789,-137.97388,-8.4060987)">
    <path
       style="fill:#000000"
       d="m 80.166837,301.30815 c -0.460452,-0.74503 1.005798,-1.79242 5.333166,-3.80967 1.65,-0.76915 3.468228,-1.97563 4.040508,-2.68104 0.572286,-0.70542 1.710108,-1.45063 2.528502,-1.65604 1.611696,-0.40451 2.167224,-1.83688 3.281634,-8.46139 0.33309,-1.98 1.38969,-5.81383 2.348004,-8.51961 1.348734,-3.80812 1.768812,-6.11261 1.85934,-10.2 0.06433,-2.90422 0.354504,-7.03539 0.644839,-9.18039 1.34445,-9.93273 3.26133,-42.29673 2.6653,-45 -0.18191,-0.825 -0.48617,-3.53334 -0.67616,-6.01854 -0.31428,-4.11126 -0.19686,-4.81171 1.30282,-7.77117 0.90653,-1.78895 3.24646,-7.99061 5.19985,-13.78146 4.02828,-11.94191 9.39786,-23.49949 15.246,-32.81581 5.49489,-8.75355 6.95167,-12.11949 6.98784,-16.14569 0.0337,-3.74674 -0.28854,-4.37939 -1.65348,-3.24659 -0.74242,0.61616 -1.3777,0.64316 -2.86449,0.12175 -1.05078,-0.3685 -2.96364,-0.85899 -4.25082,-1.08997 -1.68438,-0.30225 -3.0911,-1.19527 -5.01912,-3.18624 -5.17583,-5.34484 -16.57839,-21.36044 -20.330339,-28.555211 -3.255582,-6.242946 -3.533928,-8.778786 -1.417182,-12.911076 1.878024,-3.666264 7.783581,-11.342551 12.924651,-16.800001 2.33151,-2.475 5.62719,-6.272358 7.32371,-8.438574 1.69652,-2.166212 5.10652,-5.859211 7.57778,-8.206664 3.78399,-3.594423 4.91692,-4.331637 7.17775,-4.670669 1.4765,-0.221416 3.24102,-0.225958 3.92115,-0.01009 0.68012,0.215864 1.79022,0.09618 2.46688,-0.265952 0.97859,-0.52373 1.10598,-0.890706 0.62266,-1.793795 -0.9721,-1.816387 -0.72897,-2.959354 1.29342,-6.080435 1.52866,-2.359119 2.22972,-2.93382 3.57889,-2.93382 2.37131,0 3.24988,-1.821797 2.02287,-4.194581 -0.53105,-1.026919 -0.66826,-1.805419 -0.31821,-1.805419 0.33847,0 0.6154,-0.344962 0.6154,-0.766582 0,-0.42162 1.08,-2.87841 2.4,-5.459533 1.32,-2.581124 2.4,-5.081919 2.4,-5.557322 0,-1.153583 2.21372,-5.444482 4.05983,-7.869232 2.38395,-3.1311863 6.88885,-6.1101836 9.8238,-6.4962803 3.3297,-0.4380253 8.51762,0.9166976 12.0372,3.1432788 6.39369,4.0448165 8.95221,9.8420575 8.15492,18.4778475 -0.33903,3.672105 -0.25209,4.986056 0.37714,5.7 0.44976,0.510303 1.30466,2.491441 1.89979,4.402528 0.9074,2.91387 0.96925,3.8823 0.38318,6 -0.66701,2.410176 -0.62449,2.585316 0.93264,3.841933 4.38006,3.534739 4.40273,3.573715 4.21119,7.241993 -0.16772,3.212271 -0.3099,3.506414 -2.13564,4.41842 l -1.95596,0.97705 4.35596,3.513076 c 2.39577,1.932198 6.11096,5.102376 8.25596,7.044846 2.145,1.94247 5.925,4.891776 8.4,6.554016 5.57324,3.743065 16.04015,14.132095 18.19491,18.059533 2.23973,4.082322 2.0917,5.291082 -0.93976,7.674015 -1.39967,1.10023 -4.3842,3.68173 -6.63231,5.73669 -3.69863,3.38084 -18.89711,13.33128 -27.53152,18.02488 -1.87477,1.0191 -4.70977,2.04473 -6.3,2.27916 -1.59023,0.23443 -3.04483,0.66293 -3.23245,0.9522 -0.18761,0.28929 0.29121,2.41134 1.06406,4.71568 1.7011,5.07205 2.87966,14.5642 2.71811,21.89181 -0.0846,3.83793 -0.72358,7.82988 -2.2089,13.8 -2.86406,11.51194 -4.03293,24.22036 -3.20076,34.8 0.33744,4.29 0.62099,12.12 0.63011,17.4 0.0165,9.54713 -0.002,9.68425 -3.44219,24.9 -1.90233,8.415 -3.96739,16.59249 -4.58904,18.17221 -0.62164,1.57972 -1.13026,3.95563 -1.13026,5.2798 0,1.32417 -0.4607,3.27167 -1.02376,4.32778 -0.82835,1.55369 -1.03865,3.71827 -1.10179,11.3404 -0.0523,6.31785 -0.3142,9.70474 -0.79513,10.28424 -1.04733,1.26195 -6.22416,3.35614 -9.35831,3.78572 -2.67295,0.36637 -2.72829,0.33899 -3.61774,-1.78977 -1.23404,-2.95347 -1.13274,-6.69504 0.28201,-10.41731 0.65159,-1.71431 2.24737,-7.38431 3.5462,-12.6 2.65084,-10.64498 3.59003,-19.82534 3.64028,-35.58307 0.0163,-5.115 0.20025,-12.70289 0.40876,-16.86197 0.28777,-5.74022 0.15409,-8.63113 -0.5549,-12 -0.89439,-4.2498 -1.50604,-10.15356 -2.82199,-27.23803 -0.33045,-4.29 -1.13456,-10.23 -1.78691,-13.2 -0.65235,-2.97 -1.36591,-7.75171 -1.58568,-10.62601 -0.3703,-4.84289 -0.48102,-5.18243 -1.51019,-4.63163 -0.61082,0.3269 -1.62044,1.5986 -2.24359,2.826 -5.93654,11.69309 -8.4674,15.67817 -16.71523,26.31975 -3.61832,4.66845 -8.80709,12.2996 -11.53058,16.95809 l -4.95182,8.46999 0.66018,3.79105 c 1.35253,7.76679 0.50925,21.27099 -1.68397,26.96718 -0.79298,2.05948 -3.99798,20.76568 -4.55052,26.55942 -0.37682,3.95103 -0.29028,4.4207 1.29544,7.03104 0.93458,1.53845 2.03673,2.80573 2.44923,2.81615 1.02485,0.0259 0.91194,2.4543 -0.18135,3.90043 -1.57833,2.08772 -2.10681,5.32469 -1.53321,9.39098 0.29695,2.10516 0.32843,4.05359 0.07,4.32984 -0.71747,0.76682 -1.12317,-0.26697 -2.09206,-5.33087 -0.48903,-2.55598 -1.03778,-4.79585 -1.21943,-4.9775 -0.71422,-0.71423 -3.64104,3.10272 -5.95723,7.76902 -1.34018,2.69995 -3.12647,5.42368 -3.96954,6.05274 -0.84308,0.62905 -3.543083,1.6825 -6.000005,2.34099 -5.306088,1.42211 -16.390536,2.23809 -17.000298,1.25148 z m 46.106323,-182.22616 3.15784,-0.918 0.33741,-4.92261 c 0.24087,-3.51435 0.0114,-6.69699 -0.80214,-11.125 -1.22171,-6.649579 -1.65536,-21.754393 -0.82878,-28.867466 l 0.44751,-3.851088 -2.1891,1.66971 C 124.32866,72.6443 106.8,90.853203 106.8,91.423911 c 0,0.146916 1.5984,4.089174 3.55201,8.760579 3.32192,7.9433 8.23641,16.33379 10.99137,18.76551 1.43305,1.26492 1.06642,1.2551 4.92978,0.13199 z m 66.21933,-3.71909 c 7.52881,-5.32998 18.09612,-16.963599 17.29799,-19.043481 -0.17192,-0.448014 -2.28761,-2.305554 -4.70153,-4.127868 -2.41392,-1.822308 -7.08894,-5.490528 -10.38894,-8.151606 -3.3,-2.661072 -6.33425,-4.838682 -6.74279,-4.839126 -1.00055,-0.0012 -10.97415,5.66199 -12.3616,7.019016 -2.97097,2.905824 -5.77311,9.987288 -5.78849,14.628485 -0.004,1.18665 0.70079,3.46959 1.57434,5.1 0.8698,1.62342 2.33707,4.37209 3.2606,6.10813 0.92353,1.73605 1.8478,2.88355 2.05395,2.55 0.20614,-0.33354 0.86287,-0.60645 1.45938,-0.60645 1.57914,0 7.46265,2.50795 8.02442,3.42054 0.81457,1.32327 2.15347,0.88685 6.31267,-2.05764 z"
       id="path3430"
       inkscape:connector-curvature="0" />
    <path
       style="fill:#000000"
       d="m 80.142021,301.268 c -0.46632,-0.75453 0.598194,-1.48667 5.13981,-3.53503 2.190006,-0.98773 4.215006,-2.19514 4.5,-2.68313 0.284994,-0.48799 1.370022,-1.3225 2.411166,-1.85447 1.729284,-0.88357 1.955058,-1.34464 2.610636,-5.33129 0.394704,-2.40024 1.604364,-7.06407 2.688138,-10.36407 1.680438,-5.1168 2.02617,-7.19233 2.348676,-14.1 0.207993,-4.455 0.635873,-9.315 0.950823,-10.8 0.31497,-1.485 0.7222,-5.67 0.90497,-9.3 0.18277,-3.63 0.62447,-12.03856 0.98155,-18.68569 0.47216,-8.78937 0.46827,-12.92953 -0.0143,-15.17954 -1.09275,-5.09535 -0.82432,-7.79541 1.19646,-12.03477 1.02246,-2.145 3.19036,-7.96997 4.81755,-12.94436 3.41724,-10.4466 9.24541,-22.76599 16.45175,-34.77513 5.20833,-8.67951 6.63897,-12.68934 5.88046,-16.48188 -0.38858,-1.9429 -0.78687,-2.18149 -1.85635,-1.11201 -0.50717,0.50717 -1.12655,0.51354 -2.37,0.0244 -0.92585,-0.36424 -2.74438,-0.84737 -4.04116,-1.07362 -3.9754,-0.69359 -7.19186,-4.22413 -19.34807,-21.23737 -4.900145,-6.858 -9.194147,-15.497541 -9.194147,-18.498645 0,-3.982074 4.514286,-11.023278 12.566907,-19.601353 2.1685,-2.31 5.98746,-6.765 8.48658,-9.9 8.62724,-10.822366 13.66048,-14.395824 19.06409,-13.534954 2.85777,0.455282 4.03927,-0.27717 3.14437,-1.949297 -0.95818,-1.790384 -0.81415,-3.562354 0.38805,-4.773978 0.5775,-0.582026 1.38171,-1.797026 1.78714,-2.7 0.5648,-1.257949 1.15603,-1.641772 2.52889,-1.641772 2.28496,0 3.50259,-1.903268 2.4618,-3.848017 -0.67992,-1.270435 -0.40545,-2.567593 1.09014,-5.151983 1.35381,-2.339397 3.68263,-7.93672 3.68766,-8.863293 0.0103,-1.883535 3.40038,-6.987325 6.73068,-10.1328709 4.31597,-4.0765407 7.88648,-5.1502565 12.4211,-3.7352481 4.70546,1.4683196 8.49499,3.7133655 11.03316,6.536428 3.08867,3.435343 3.56551,5.283571 3.65103,14.151245 0.0329,3.407493 0.34755,6.425279 0.71953,6.9 0.36361,0.464057 1.15367,2.24516 1.75568,3.958008 0.94474,2.688037 0.99201,3.456526 0.34533,5.614972 -0.69249,2.311299 -0.64786,2.60861 0.58921,3.925419 0.73616,0.783593 1.79478,1.569547 2.3525,1.746562 2.46709,0.783024 3.29282,7.202115 1.19616,9.298779 -0.66,0.66 -1.76852,1.2 -2.46336,1.2 -0.92133,0 3.4e-4,1.015223 3.40446,3.75 2.56729,2.0625 6.57831,5.465358 8.91335,7.561908 2.33505,2.096556 6.27055,5.18634 8.74555,6.866197 8.8133,5.98185 19.17679,17.763774 19.19437,21.821478 0.004,0.822396 -0.93069,2.026325 -2.54437,3.278815 -1.4025,1.08857 -4.33777,3.60877 -6.52283,5.60042 -2.18505,1.99165 -8.12505,6.21123 -13.2,9.37685 -14.54524,9.07293 -17.3509,10.53628 -20.84473,10.872 -1.70985,0.16429 -3.27596,0.46585 -3.48023,0.67011 -0.20426,0.20427 0.32193,2.47084 1.16932,5.03681 1.5537,4.70476 2.91194,15.58004 2.89551,23.18397 -0.005,2.20473 -0.83726,6.93055 -2.0754,11.78145 -2.96898,11.63214 -4.2596,25.75125 -3.31816,36.3 0.38287,4.29 0.70163,11.85 0.70835,16.8 0.0116,8.53179 -0.13318,9.65549 -2.78281,21.6 -1.53727,6.93 -3.60593,15.35549 -4.59703,18.7233 -0.9911,3.36783 -1.80199,7.09373 -1.80199,8.2798 0,1.18607 -0.46829,3.02058 -1.04065,4.07669 -0.82816,1.52813 -1.06265,3.63538 -1.14841,10.32021 -0.0593,4.62 -0.13099,9.02168 -0.15936,9.78152 -0.0407,1.09145 -0.83898,1.74526 -3.80158,3.11382 -5.37864,2.48463 -7.70586,2.80042 -9.12026,1.23753 -1.725,-1.90611 -1.91682,-6.84105 -0.41342,-10.63616 2.28799,-5.77567 5.49343,-19.65579 6.35003,-27.49671 1.07613,-9.85031 1.72764,-47.3824 0.87122,-50.18907 -0.84972,-2.78472 -1.57098,-9.72243 -2.32989,-22.41093 -0.35527,-5.94 -1.01621,-12.15 -1.46876,-13.8 -1.05975,-3.8639 -1.98578,-9.59153 -2.49793,-15.45 -0.22358,-2.5575 -0.59742,-4.65 -0.83076,-4.65 -0.84054,0 -2.32422,2.21391 -5.894,8.79486 -5.05081,9.31126 -6.00596,10.75588 -13.62369,20.60514 -3.70088,4.785 -8.94309,12.48 -11.64936,17.1 l -4.92051,8.4 0.48866,3.3 c 0.26876,1.815 0.4799,7.215 0.46919,12 -0.017,7.60933 -0.22262,9.41457 -1.63998,14.4 -1.80048,6.33306 -3.60093,16.22239 -4.70301,25.8322 l -0.72619,6.3322 1.65134,2.8178 c 0.90824,1.54979 2.03068,2.8178 2.49433,2.8178 1.22212,0 1.04635,1.21078 -0.74326,5.11981 -1.48249,3.23818 -1.5497,3.75312 -1.02741,7.87251 0.42828,3.37791 0.38748,4.40768 -0.17462,4.40768 -0.44562,0 -1.03056,-1.76811 -1.49049,-4.50536 -0.41637,-2.47794 -0.96565,-4.84044 -1.22063,-5.25 -0.78063,-1.25391 -3.55503,2.07722 -6.50061,7.80505 -3.14209,6.10998 -3.89602,6.62627 -12.443643,8.52128 -5.67807,1.25883 -13.62624,1.64858 -14.214336,0.69702 z M 126.3,119.20048 l 3,-0.77638 0.4647,-5.06205 c 0.36179,-3.94106 0.22892,-6.19143 -0.6,-10.16205 -0.85076,-4.075209 -1.06032,-7.953819 -1.04294,-19.302471 0.0193,-12.597127 -0.0824,-14.145277 -0.9,-13.696417 -0.91631,0.503082 -6.08682,5.709876 -15.64058,15.750355 l -4.99689,5.251464 3.15959,7.948536 c 3.98416,10.022883 10.90947,20.922173 13.23963,20.836963 0.17407,-0.006 1.66649,-0.36094 3.31649,-0.78795 z m 66.32996,-3.78937 c 4.59725,-3.31295 13.34949,-11.98897 16.01319,-15.873735 l 1.89428,-2.762628 -1.91871,-1.772562 c -1.0553,-0.97491 -3.40371,-2.889108 -5.21871,-4.253772 -1.815,-1.36467 -5.82767,-4.52133 -8.91705,-7.01481 -3.08937,-2.49348 -6.1527,-4.5336 -6.80738,-4.5336 -0.65468,0 -1.90701,0.498372 -2.78295,1.107492 -0.87594,0.60912 -3.25979,1.985898 -5.29743,3.059508 -5.96889,3.14493 -9.75597,9.833526 -9.81154,17.328777 -0.0112,1.50112 0.98094,4.14564 3.11013,8.29053 2.64257,5.1443 3.27762,5.99192 4.10302,5.47645 1.10873,-0.69242 7.87998,1.48385 9.06699,2.91411 1.13499,1.36759 2.51312,0.95501 6.56616,-1.96576 z"
       id="path3428"
       inkscape:connector-curvature="0" />
    <path
       style="fill:#000000"
       d="m 80.400003,300.99993 c 0,-0.61297 1.612038,-1.70839 4.430322,-3.01051 2.436678,-1.12582 4.664178,-2.44742 4.95,-2.93689 0.285822,-0.48947 1.373688,-1.32631 2.417472,-1.85965 1.561248,-0.79773 2.013456,-1.509 2.55,-4.01082 0.358716,-1.67261 0.652206,-3.65556 0.652206,-4.40655 0,-0.75099 0.914724,-4.0452 2.032716,-7.32047 1.758708,-5.1523 2.079534,-7.00646 2.380044,-13.75503 0.191037,-4.29 0.632387,-9.285 0.980777,-11.1 0.66057,-3.44136 0.74847,-4.73037 1.86195,-27.30513 0.49929,-10.12258 0.50357,-14.44397 0.0161,-16.2 -1.15577,-4.16318 -0.81399,-7.16096 1.34895,-11.83172 1.11127,-2.39973 3.40644,-8.54815 5.10037,-13.66315 3.57188,-10.78564 8.87214,-22.02453 15.98727,-33.90001 5.22786,-8.72555 6.63142,-12.5798 5.93429,-16.29584 -0.30471,-1.62421 -0.60203,-1.9841 -1.36596,-1.6534 -1.33566,0.57819 -2.22038,0.50375 -6.28427,-0.52882 C 118.21763,129.90717 115.944,127.49726 104.59681,111.3 98.184647,102.14714 94.200023,94.556133 94.200023,91.493373 c 0,-4.044846 4.770456,-11.547372 12.585557,-19.793371 2.18928,-2.31 5.55721,-6.225 7.48428,-8.7 4.38661,-5.633901 10.21327,-11.681606 12.82068,-13.307064 1.45722,-0.908433 3.0933,-1.263032 6.10662,-1.323535 2.26386,-0.04546 4.28074,-0.247274 4.48195,-0.448487 0.20121,-0.201214 0.0479,-1.063568 -0.34061,-1.916343 -0.54884,-1.204564 -0.53761,-1.958136 0.0503,-3.377536 0.41621,-1.004869 0.99401,-1.827036 1.28398,-1.827036 0.28996,0 0.5272,-0.363153 0.5272,-0.807007 0,-1.142919 1.84278,-2.646985 3.53873,-2.888288 2.04995,-0.291672 2.89627,-1.870784 1.95014,-3.638661 -0.74431,-1.390757 -0.49235,-2.668174 1.03868,-5.266044 1.02922,-1.746401 3.00726,-6.335695 4.0084,-9.3 2.00795,-5.94537 7.87865,-12.319133 12.49069,-13.5610283 6.44356,-1.7350699 18.60445,4.7972473 19.91202,10.6959013 0.20302,0.91582 0.61234,2.475127 0.90961,3.465127 0.29727,0.99 0.39849,4.048796 0.22493,6.797325 -0.2839,4.496015 -0.16041,5.325292 1.23108,8.266667 1.70251,3.59881 1.97064,5.41341 1.29603,8.771011 -0.38196,1.901041 -0.24889,2.394138 0.89049,3.3 4.02269,3.198211 4.70921,4.218018 4.70921,6.995471 0,2.96691 -1.60908,5.169527 -3.77649,5.169527 -0.75842,0 0.43979,1.277376 3.51759,3.75 2.56729,2.0625 6.57831,5.465358 8.91335,7.561908 2.33505,2.096556 6.27055,5.180358 8.74555,6.852907 5.74006,3.878988 15.39244,13.59543 17.60633,17.723172 2.03466,3.793566 1.81932,5.455061 -0.95777,7.390031 -1.0717,0.74673 -3.86886,3.12715 -6.21588,5.28984 -2.45952,2.26634 -8.43281,6.50581 -14.1,10.00732 -15.34721,9.48236 -16.75506,10.21665 -20.22854,10.5504 -1.72179,0.16545 -3.29616,0.46644 -3.4986,0.66888 -0.20244,0.20244 0.216,2.199 0.92985,4.43681 1.73229,5.43036 2.37165,9.72328 2.84102,19.076 0.38206,7.61299 0.3354,8.04778 -1.77126,16.50585 -2.82695,11.34995 -4.29264,25.08518 -3.79953,35.60578 0.20875,4.45374 0.65733,8.07499 1.06045,8.56072 0.49386,0.59507 0.60559,3.34491 0.38115,9.38111 -0.27991,7.52837 -0.72159,10.33835 -3.73084,23.73625 -1.87734,8.35833 -3.93152,16.7031 -4.56486,18.54393 -0.63334,1.84083 -1.15152,4.25836 -1.15152,5.3723 0,1.11394 -0.45247,3.02917 -1.00549,4.25607 -0.74821,1.65995 -1.04492,4.30326 -1.15961,10.33073 -0.0848,4.455 -0.1723,8.85668 -0.19451,9.78152 -0.0352,1.46496 -0.52336,1.90463 -3.79039,3.41382 -5.26731,2.43321 -7.71271,2.79285 -9.03737,1.32912 -1.74125,-1.92406 -1.95931,-6.62832 -0.48937,-10.55709 2.563,-6.85022 5.95192,-22.1271 6.60341,-29.76737 0.94212,-11.04874 1.39531,-45.50775 0.63167,-48.03018 -0.84943,-2.80582 -1.6281,-10.25107 -2.35,-22.46982 -0.34248,-5.79668 -1.11067,-12.40166 -1.77946,-15.3 -0.64724,-2.805 -1.50255,-8.1375 -1.90067,-11.85 -0.39812,-3.7125 -0.90799,-6.75 -1.13304,-6.75 -1.07555,0 -2.98169,2.89082 -6.13222,9.3 -2.71645,5.52614 -6.57379,11.3355 -13.34612,20.1 -6.44474,8.34054 -9.41939,12.84475 -14.39714,21.8001 l -2.27901,4.1001 0.67966,4.11547 c 1.32185,8.00413 0.53724,20.24044 -1.6645,25.95875 -0.85008,2.20779 -4.07168,21.07248 -4.59858,26.92785 -0.3732,4.14741 -0.27834,4.82936 0.9598,6.9 0.75566,1.26375 1.92978,2.74826 2.60916,3.29892 l 1.23524,1.00119 -1.48074,2.89881 c -1.28471,2.51506 -1.46322,3.59381 -1.34849,8.14881 0.13508,5.36276 -0.58801,7.04758 -1.28755,3 -0.21388,-1.2375 -0.67402,-3.69615 -1.02253,-5.46366 l -0.63367,-3.21366 -2.05474,1.99154 c -1.13012,1.09535 -3.13691,4.22729 -4.45956,6.95986 -1.32264,2.73257 -3.00541,5.35623 -3.73949,5.83035 -2.28354,1.47487 -11.277885,3.47498 -17.084697,3.7992 -4.824744,0.26938 -5.55,0.18396 -5.55,-0.65371 z M 126.3,119.2004 l 3,-0.77647 0.48212,-4.76196 c 0.38778,-3.83022 0.22409,-6.22298 -0.83658,-12.22891 -1.16963,-6.622947 -1.28185,-8.844015 -0.99284,-19.650003 0.17921,-6.700681 0.15067,-12.174979 -0.0634,-12.165115 -0.62148,0.02862 -8.87061,8.225539 -15.30362,15.206731 -4.05291,4.398264 -5.81756,6.742038 -5.6068,7.446828 0.16917,0.56568 1.68426,4.363422 3.3669,8.439439 3.82903,9.27551 10.43876,19.3579 12.63776,19.27749 0.17407,-0.006 1.66649,-0.36098 3.31649,-0.78803 z m 66.32996,-3.78929 c 6.11277,-4.40509 17.97005,-16.950201 17.97005,-19.012479 0,-0.15684 -2.3625,-2.04468 -5.25,-4.195194 -2.8875,-2.15052 -7.77767,-5.956044 -10.86705,-8.45673 -3.08937,-2.500686 -6.1527,-4.546704 -6.80738,-4.546704 -0.65468,0 -1.90701,0.498372 -2.78295,1.107492 -0.87594,0.60912 -3.25979,1.985898 -5.29743,3.059508 -2.81483,1.483098 -4.27164,2.766492 -6.06439,5.342508 -2.58157,3.709482 -3.05588,5.145948 -3.53183,10.696308 -0.30802,3.592091 -0.21883,3.889771 2.90605,9.699731 2.75738,5.12668 3.37403,5.90984 4.26202,5.4129 1.17745,-0.65894 7.72293,1.44405 8.89675,2.85842 1.13499,1.36759 2.51312,0.95501 6.56616,-1.96576 z"
       id="path3426"
       inkscape:connector-curvature="0" />
    <path
       style="fill:#000000"
       d="m 80.489655,300.88965 c 0.13125,-0.67398 1.66782,-1.69864 4.086228,-2.7249 2.131734,-0.90459 4.30791,-2.17825 4.83594,-2.83034 0.52803,-0.65209 1.797888,-1.61888 2.821914,-2.14842 1.518228,-0.78511 1.982232,-1.52408 2.51406,-4.00393 0.358716,-1.67261 0.652206,-3.58236 0.652206,-4.24388 0,-0.66152 0.909936,-3.95573 2.022084,-7.32047 1.730964,-5.23694 2.079396,-7.28385 2.420196,-14.2177 0.218967,-4.455 0.653877,-9.315 0.966467,-10.8 0.59095,-2.80738 0.70488,-4.4886 1.84987,-27.3 0.51277,-10.21579 0.51806,-14.42334 0.0204,-16.2 -1.15354,-4.11795 -0.81841,-7.0271 1.35537,-11.76551 1.1189,-2.43897 3.44538,-8.6909 5.16995,-13.89318 3.04754,-9.19305 10.1453,-24.77899 13.66245,-30.00132 6.73922,-10.0065 9.48275,-17.22533 7.99319,-21.03181 -0.61148,-1.5626 -0.7366,-1.61725 -1.63836,-0.71549 -0.5654,0.56539 -1.38569,0.8082 -1.94896,0.57688 -0.53494,-0.21968 -2.41614,-0.74581 -4.18042,-1.16916 -4.81353,-1.15505 -7.21366,-3.72217 -18.5124,-19.80042 -6.113189,-8.69914 -10.379837,-16.896393 -10.379837,-19.942161 0,-3.758064 5.001102,-11.631156 12.296367,-19.357837 2.33682,-2.475 5.83016,-6.525 7.76298,-9 4.41477,-5.653135 10.23348,-11.687664 12.83117,-13.307064 1.45722,-0.908433 3.0933,-1.263032 6.10662,-1.323535 2.26386,-0.04546 4.28074,-0.247274 4.48195,-0.448487 0.20121,-0.201214 0.0479,-1.063568 -0.34061,-1.916343 -0.54884,-1.204564 -0.53761,-1.958136 0.0503,-3.377536 0.41621,-1.004869 0.9358,-1.827036 1.15461,-1.827036 0.21881,0 0.86601,-0.792544 1.43822,-1.761209 0.65124,-1.102473 1.63076,-1.831821 2.61884,-1.95 2.16811,-0.259312 3.06021,-1.806861 2.08838,-3.622747 -0.74286,-1.388045 -0.50451,-2.609857 1.02729,-5.266044 1.32776,-2.302366 3.70164,-7.571934 3.69323,-8.198259 -0.0256,-1.901968 4.04153,-8.293445 6.99504,-10.9927831 4.11424,-3.760183 6.94902,-4.6356013 11.58836,-3.5786413 6.40053,1.4582022 13.3156,6.6542844 14.1128,10.6045564 0.18482,0.91582 0.58062,2.475127 0.87955,3.465127 0.29894,0.99 0.41498,4.190778 0.25788,7.11284 -0.15711,2.922062 -0.0526,5.622062 0.23235,6 1.61282,2.139511 2.66411,6.688267 2.31585,10.020234 -0.36349,3.477679 -0.35953,3.488634 1.72268,4.775513 2.87092,1.774327 3.88611,3.428443 3.88611,6.331925 0,2.588005 -0.97427,3.970744 -3.44059,4.883096 -1.19957,0.443749 -0.91232,0.804612 3.24892,4.081589 2.51065,1.977144 6.61837,5.448816 9.12825,7.71483 2.50988,2.266008 6.44428,5.366364 8.74312,6.889669 9.01438,5.973306 19.56142,18.454182 18.65311,22.073202 -0.19084,0.760361 -0.83322,1.642691 -1.42751,1.960751 -0.59428,0.31805 -3.3586,2.64052 -6.14291,5.16105 -3.08626,2.79387 -8.92691,6.98579 -14.96239,10.73874 -16.10496,10.01429 -16.98314,10.47095 -20.52731,10.67442 -2.96635,0.1703 -3.16635,0.2797 -3.07521,1.68214 0.0536,0.825 0.6695,3.39 1.36863,5.7 0.83854,2.77061 1.51074,7.52769 1.97514,13.97773 l 0.70398,9.77772 -2.19835,8.82228 c -2.79992,11.23648 -4.32317,25.51657 -3.86423,36.22625 0.17923,4.18219 0.65441,8.21787 1.05596,8.96818 0.52168,0.97477 0.63451,3.68555 0.39524,9.49603 -0.28569,6.93766 -0.83386,10.36349 -3.73283,23.32879 -1.86889,8.35833 -3.91616,16.7031 -4.5495,18.54393 -0.63334,1.84083 -1.15319,4.31719 -1.15522,5.50303 -0.002,1.18584 -0.45043,2.96607 -0.99644,3.95607 -0.93073,1.68756 -1.17305,5.2566 -1.37703,20.28152 -0.02,1.47062 -0.49318,1.8988 -3.77283,3.41382 -7.65734,3.53727 -9.84899,2.8902 -10.44369,-3.08343 -0.24278,-2.43865 -0.025,-3.892 0.90487,-6.0368 2.07139,-4.77809 5.94743,-21.93007 6.61565,-29.27511 0.94971,-10.43898 1.40379,-46.98774 0.60909,-49.02499 -0.80265,-2.05763 -1.55739,-9.33867 -2.32512,-22.4305 -0.33747,-5.7547 -1.07816,-12.02523 -1.75537,-14.86063 -0.64436,-2.69783 -1.50281,-8.00536 -1.90766,-11.79452 -0.40484,-3.78915 -0.93971,-6.88936 -1.18859,-6.88936 -0.98561,0 -3.80248,4.08886 -5.99252,8.6985 -2.9686,6.2484 -6.71194,11.92276 -14.21264,21.54433 -3.31985,4.25855 -8.25766,11.54855 -10.97291,16.2 l -4.93683,8.45717 0.68182,4.5 c 1.29276,8.53215 0.54034,20.2331 -1.67026,25.97442 -0.84561,2.19617 -4.07052,21.05949 -4.59286,26.86476 -0.45178,5.02102 0.25824,7.23299 3.19547,9.95513 l 1.54239,1.42943 -1.45042,2.83813 c -1.2434,2.43303 -1.43492,3.58748 -1.34175,8.08813 0.11299,5.45846 -0.57179,7.02304 -1.2413,2.83613 -0.21229,-1.32763 -0.67973,-3.78353 -1.03875,-5.45755 l -0.65275,-3.04368 -2.04844,1.98543 c -1.12664,1.09199 -3.1306,4.22118 -4.45325,6.95375 -1.32264,2.73257 -3.00541,5.35623 -3.73949,5.83035 -2.29258,1.48071 -11.287269,3.47551 -17.145045,3.80236 -5.171622,0.28855 -5.593896,0.22857 -5.4,-0.76715 z M 128.07768,118.80849 c 1.20104,-0.45663 1.39276,-1.06309 1.74212,-5.51079 0.37302,-4.74908 0.17096,-6.85249 -1.45993,-15.197697 -0.46885,-2.399052 -0.60115,-7.753272 -0.39661,-16.05 0.16881,-6.847501 0.13364,-12.441925 -0.0782,-12.432061 -1.13184,0.05273 -21.0851,20.928349 -21.0851,22.059769 0,0.314478 1.49484,4.18314 3.32186,8.597039 3.30513,7.98482 8.70412,17.01997 11.25756,18.83937 1.32645,0.94513 3.69244,0.83718 6.69826,-0.30563 z m 65.55189,-4.18988 c 7.43057,-5.53171 17.69454,-16.961575 16.69041,-18.586285 -0.21692,-0.350982 -1.93158,-1.682028 -3.81037,-2.957886 -1.87878,-1.275858 -5.48284,-4.04205 -8.00902,-6.14709 -8.37988,-6.982854 -9.4101,-7.727346 -10.6931,-7.727346 -0.70027,0 -2.9857,1.0125 -5.07874,2.25 -2.09304,1.2375 -4.58738,2.677872 -5.54297,3.200832 -1.82131,0.996732 -5.46602,6.15648 -6.55245,9.276186 -0.34993,1.004856 -0.69308,3.582612 -0.76254,5.728344 -0.10883,3.361655 0.12573,4.353905 1.69561,7.172985 1.00205,1.79941 2.37815,4.42137 3.05801,5.82657 1.05843,2.1877 1.39773,2.46842 2.36059,1.95312 1.21354,-0.64947 7.29406,1.23629 8.99358,2.78919 1.48808,1.35971 2.66745,0.9314 7.65099,-2.77862 z"
       id="path3424"
       inkscape:connector-curvature="0" />
    <path
       style="fill:#000000"
       d="m 80.506011,300.86022 c 0.106692,-0.51687 1.838982,-1.66658 3.849522,-2.55489 2.01054,-0.88831 4.60137,-2.42291 5.757402,-3.41022 1.156026,-0.9873 2.561082,-2.0651 3.122334,-2.3951 0.688878,-0.40504 1.293414,-2.17359 1.860486,-5.44279 0.462012,-2.66353 1.642452,-7.25353 2.623206,-10.2 1.45287,-4.36484 1.846086,-6.74652 2.122758,-12.85721 0.186761,-4.125 0.715811,-9.66 1.175661,-12.3 0.45986,-2.64 0.8692,-6.96 0.90966,-9.6 0.0404,-2.64 0.37829,-10.47927 0.75074,-17.4206 0.50302,-9.37505 0.50295,-13.43296 -3e-4,-15.77953 -1.04183,-4.85789 -0.82742,-7.03706 1.06035,-10.7767 0.9558,-1.89343 3.25558,-8.01417 5.11062,-13.60164 4.42711,-13.33462 15.96276,-36.71034 17.4046,-35.26849 0.22571,0.22571 0.24017,-0.0332 0.0322,-0.57532 -0.2476,-0.64525 0.0581,-1.21922 0.88509,-1.66181 0.69484,-0.37187 1.1232,-0.90289 0.9519,-1.18005 -0.17129,-0.27715 0.33526,-1.68111 1.12567,-3.11989 1.72775,-3.14504 2.47379,-7.99192 1.58852,-10.32035 -0.57976,-1.5249 -0.72491,-1.59279 -1.57907,-0.73863 -0.6469,0.6469 -1.25548,0.77213 -1.94896,0.40103 -0.55458,-0.29677 -2.33058,-0.73786 -3.94667,-0.98018 C 118.76506,130.3886 116.95667,128.47421 104.39571,111 98.886741,103.3362 94.193025,94.367565 94.213209,91.543551 c 0.02856,-3.990972 5.00049,-11.750538 12.907041,-20.143549 2.33154,-2.475 6.18104,-6.968328 8.55443,-9.985176 4.70071,-5.975148 10.25683,-11.377818 12.68597,-12.335604 0.84666,-0.33383 3.03446,-0.594296 4.86177,-0.578812 4.47583,0.03793 5.19338,-0.448123 4.20046,-2.845242 -0.72168,-1.742301 -0.6298,-2.057246 1.50399,-5.155415 1.59763,-2.319727 2.66665,-3.299752 3.5994,-3.299752 2.1042,0 3.03272,-1.545933 2.22067,-3.697289 -0.6538,-1.732131 -0.46706,-2.768615 0.95539,-5.302711 1.97609,-3.520407 3.69767,-7.210695 3.69767,-7.926136 0,-1.69836 3.09339,-7.201989 5.53958,-9.855792 5.52223,-5.9909095 10.86717,-6.7566323 18.96736,-2.7172845 3.72871,1.8594108 7.70347,5.8924855 8.19355,8.3137485 0.18762,0.927005 0.58401,2.495464 0.88085,3.485464 0.29684,0.99 0.40311,4.178999 0.23615,7.086663 -0.16696,2.907665 -0.0607,5.607665 0.23616,6.000001 1.62248,2.144394 2.68758,6.697746 2.34141,10.009685 -0.29866,2.857389 -0.17525,3.616585 0.71948,4.426301 0.59397,0.537543 1.3766,0.977351 1.73916,0.977351 1.25033,0 3.14631,3.145806 3.14631,5.22036 0,2.730657 -0.92234,4.320819 -3.01705,5.201579 l -1.72256,0.724283 5.2198,4.164182 c 2.8709,2.290296 6.97481,5.75475 9.11981,7.69878 2.145,1.94403 5.925,4.902588 8.4,6.574567 6.24651,4.219824 14.24255,12.406686 16.72899,17.12823 1.78155,3.383016 1.92084,3.973794 1.23784,5.25 -0.42328,0.790907 -0.96746,1.438017 -1.20929,1.438017 -0.24183,0 -2.77346,2.13179 -5.62586,4.7373 -5.01877,4.58437 -13.71422,10.44075 -26.74727,18.01427 -5.51575,3.2052 -6.66154,3.64843 -9.43146,3.64843 -3.71571,0 -3.84453,0.38494 -1.9806,5.91793 1.53438,4.55474 2.25423,9.50561 2.71635,18.68207 0.36279,7.20418 0.29622,7.81951 -1.68777,15.60001 -3.68565,14.45385 -5.15674,38.77655 -2.75334,45.52299 1.40072,3.93187 0.35732,15.26967 -2.68511,29.17701 -3.23079,14.76834 -4.5159,19.97562 -5.31478,21.53561 -0.31986,0.62458 -0.81861,3.02351 -1.10835,5.33094 -0.28972,2.30744 -0.85534,4.59123 -1.25692,5.0751 -0.63459,0.76464 -1.01282,7.53428 -1.07252,19.19616 -0.008,1.63368 -0.36586,2.11939 -2.27797,3.09488 -1.24743,0.63639 -3.84408,1.61524 -5.77032,2.17521 -3.37682,0.98167 -3.54323,0.97717 -4.64609,-0.1257 -1.83209,-1.83209 -2.13704,-6.74588 -0.6353,-10.23678 1.19284,-2.77283 3.56054,-11.4545 5.19413,-19.04542 1.39598,-6.48678 2.07523,-17.08344 2.40381,-37.50106 0.21463,-13.33658 0.10981,-20.8074 -0.31148,-22.2 -0.86,-2.84281 -1.63708,-10.27304 -2.35302,-22.49894 -0.32851,-5.61 -1.02371,-11.82 -1.54487,-13.8 -0.52116,-1.98 -1.41357,-7.34474 -1.98314,-11.92163 l -1.03558,-8.32162 -1.86338,2.12227 c -1.02486,1.16726 -3.5409,5.36776 -5.59119,9.33447 -2.26979,4.39136 -5.93926,10.10146 -9.38197,14.59935 -8.74213,11.42159 -11.3423,15.18923 -15.6001,22.60459 l -3.94336,6.86773 0.75123,5.67589 c 1.01955,7.70317 0.4564,17.04299 -1.4193,23.53895 -1.7169,5.94597 -4.45923,21.66131 -4.99715,28.63695 -0.33994,4.40814 -0.2498,5.0211 1.0076,6.85213 0.7595,1.106 1.91562,2.44591 2.56914,2.97756 1.17687,0.95739 1.17235,0.99909 -0.4731,4.36225 -1.54667,3.16129 -1.6325,3.72602 -1.24368,8.18337 0.52558,6.02512 -0.40241,6.30587 -1.44695,0.43774 -1.21426,-6.82162 -1.21791,-6.82613 -3.56428,-4.4053 -1.10517,1.14024 -3.12579,4.31915 -4.49027,7.06424 -2.93967,5.91404 -3.74394,6.43466 -12.757575,8.25816 -7.594944,1.5365 -13.583658,1.66848 -13.299744,0.29311 z m 45.972289,-181.54574 2.96985,-0.68552 0.404,-5.50383 c 0.3137,-4.27342 0.163,-6.5681 -0.67407,-10.26448 -0.87645,-3.870295 -1.07538,-7.425733 -1.06368,-19.010647 0.008,-7.837501 -0.12708,-14.241925 -0.3,-14.232061 -1.16416,0.06644 -21.0144,20.980225 -21.0144,22.140337 0,0.35652 1.46316,4.175328 3.25145,8.486241 C 114.24213,110.34668 120.45564,120 122.76737,120 c 0.40759,0 2.07752,-0.30848 3.71093,-0.68552 z m 65.52972,-3.32719 c 5.56629,-3.74139 18.59199,-17.366661 18.59199,-19.447785 0,-0.264252 -2.4975,-2.361288 -5.55,-4.660092 -3.0525,-2.298798 -7.89454,-6.092088 -10.76008,-8.429526 -5.62811,-4.590876 -6.9026,-4.983342 -9.78992,-3.014688 -0.99,0.675012 -3.285,1.993842 -5.1,2.930742 -3.05495,1.576956 -7.2,5.721366 -7.2,7.198878 0,0.34935 -0.23936,0.635184 -0.5319,0.635184 -0.6866,0 -1.26015,2.833872 -1.63938,8.1 -0.26934,3.740087 -0.12566,4.528507 1.31216,7.199997 0.88804,1.65 2.26661,4.28559 3.06347,5.85687 1.24869,2.46216 1.60473,2.77346 2.577,2.25312 1.21724,-0.65145 7.29417,1.23111 8.99722,2.78724 1.35932,1.24205 2.47047,0.98222 6.02944,-1.40994 z"
       id="path3422"
       inkscape:connector-curvature="0" />
    <path
       style="fill:#000000"
       d="m 80.800005,301.40001 c -0.829158,-0.82916 -0.299094,-1.28691 3.295362,-2.84578 3.431364,-1.48814 5.649792,-2.96664 9.162894,-6.10672 1.06479,-0.95173 1.506786,-2.1764 1.840626,-5.1 0.241632,-2.11612 1.244238,-6.0075 2.228004,-8.6475 1.499832,-4.0249 1.872402,-6.15643 2.30721,-13.2 0.285198,-4.62 0.918669,-10.965 1.407719,-14.1 1.49849,-9.60601 2.31719,-38.58872 1.29099,-45.70205 -0.45036,-3.1218 -0.33099,-3.73963 1.44912,-7.5 1.06696,-2.25388 3.50886,-8.68795 5.42646,-14.29795 1.91759,-5.61 5.1199,-13.60748 7.11625,-17.77218 3.8424,-8.01587 9.3212,-17.482 9.82602,-16.97717 0.1656,0.16561 0.46636,-0.12957 0.66835,-0.65594 0.24511,-0.63876 0.1201,-0.82959 -0.37588,-0.57381 -0.40872,0.21077 -0.0681,-0.20364 0.75687,-0.92091 0.825,-0.71727 1.18497,-1.14365 0.79994,-0.94752 -0.38504,0.19614 0.0826,-1.06293 1.03913,-2.79793 0.95656,-1.735 1.74409,-3.76571 1.75006,-4.51269 0.006,-0.74697 0.29913,-1.82697 0.65145,-2.4 0.47628,-0.77464 0.38625,-1.64532 -0.35103,-3.39471 -0.69972,-1.66028 -1.13578,-2.11956 -1.48142,-1.5603 -0.4017,0.64996 -1.17378,0.65799 -4.29131,0.0446 -7.09515,-1.39589 -8.21678,-2.484 -20.13302,-19.5315 -5.976545,-8.55011 -10.991231,-17.938067 -10.970621,-20.538017 0.0073,-0.914094 0.555084,-2.856474 1.217412,-4.3164 1.550808,-3.418338 8.088419,-12.172291 11.684409,-15.645589 1.53746,-1.485 5.03132,-5.535 7.76413,-9 5.45774,-6.919998 9.86294,-11.318681 12.91722,-12.89811 1.20595,-0.623622 3.53888,-1.060899 5.94432,-1.114184 3.85201,-0.08533 3.95443,-0.128368 3.77825,-1.587706 -0.3936,-3.260429 -0.18861,-4.066051 1.72577,-6.781987 1.55685,-2.208706 2.34805,-2.817996 3.65938,-2.817996 1.95424,0 2.82878,-2.083256 1.7336,-4.129621 -0.67332,-1.258117 -0.31133,-2.232981 3.62128,-9.752072 0.62758,-1.199931 1.14105,-2.566899 1.14105,-3.037708 0,-1.527482 2.83128,-6.715868 5.09398,-9.334828 1.21372,-1.4048255 3.41926,-3.2647955 4.9012,-4.1332668 2.44268,-1.43151 3.08992,-1.5458809 6.92756,-1.224147 3.43106,0.2876477 4.97603,0.7865886 8.1539,2.6332669 7.0918,4.1210769 8.81773,7.7526869 8.59677,18.0888639 -0.066,3.085768 0.11404,5.920768 0.40001,6.3 1.62579,2.155978 2.65277,6.644259 2.27808,9.956056 -0.41348,3.654632 -0.12191,4.239862 2.85067,5.721856 2.98791,1.489633 3.74053,6.623451 1.32511,9.038874 -0.81,0.81 -1.9575,1.474068 -2.55,1.475707 -1.19013,0.0033 -0.44049,0.716347 6.12273,5.82392 1.98,1.540854 5.23111,4.308174 7.2247,6.149586 1.99359,1.841412 5.90859,4.94562 8.7,6.898231 6.60226,4.618326 14.21989,12.421674 16.73793,17.146002 1.75102,3.285258 1.88694,3.865548 1.2042,5.141262 -0.42328,0.790907 -0.962,1.438017 -1.19714,1.438017 -0.23515,0 -2.82203,2.16928 -5.74862,4.82061 -4.94741,4.48209 -7.71405,6.39489 -21.22107,14.6718 -9.92846,6.08402 -11.71301,6.90759 -14.96757,6.90759 -3.58992,0 -3.71495,0.41185 -1.82663,6.01722 1.43725,4.26643 2.19403,9.79359 2.64302,19.3034 0.31139,6.59525 0.20788,7.50407 -1.70843,15 -3.63109,14.20358 -5.0962,38.81658 -2.70315,45.41147 1.45758,4.01687 0.3556,15.1431 -3.00775,30.36792 -1.67673,7.59 -3.69557,16.095 -4.48631,18.9 -0.79074,2.805 -1.73943,6.585 -2.1082,8.4 -0.36878,1.815 -0.92247,4.38 -1.23044,5.7 -0.30797,1.32 -0.54883,5.99977 -0.53526,10.3995 0.028,9.05981 0.15192,8.80076 -5.16928,10.80307 -5.14635,1.93651 -6.15897,2.03846 -7.44762,0.74982 -2.04027,-2.04027 -2.19724,-6.0256 -0.4328,-10.9883 2.8436,-7.99794 5.60176,-20.31324 6.2853,-28.06409 0.96806,-10.97699 1.44638,-47.211 0.65743,-49.80106 -0.83215,-2.73188 -1.62488,-10.45895 -2.35814,-22.98583 -0.32474,-5.54778 -1.00427,-11.6839 -1.51005,-13.63581 -0.88536,-3.41672 -2.6292,-14.54914 -2.54565,-16.25103 0.0223,-0.45445 -0.002,-1.48429 -0.0539,-2.28853 l -0.0945,-1.46225 -1.79453,1.71926 c -0.98699,0.9456 -3.05498,4.16861 -4.59554,7.16226 -4.41225,8.57397 -6.88673,12.37562 -14.20288,21.82054 -3.75869,4.85235 -8.93759,12.40885 -11.50868,16.79224 l -4.67469,7.96979 0.68892,4.93021 c 1.24894,8.93792 0.55775,19.45317 -1.65676,25.20463 -0.93791,2.43591 -4.18938,21.85193 -4.63904,27.70185 -0.35232,4.58355 -0.26883,5.17142 0.99602,7.01332 0.7593,1.10572 1.91526,2.4454 2.56878,2.97705 1.17678,0.95732 1.17216,0.99948 -0.48065,4.37768 -1.54814,3.16429 -1.64008,3.75629 -1.27087,8.18337 0.22287,2.67239 0.16402,4.77231 -0.13373,4.77231 -0.29244,0 -0.86647,-2.07513 -1.27561,-4.6114 -0.40915,-2.53627 -0.88706,-4.98447 -1.06204,-5.44044 -0.55492,-1.4461 -4.30385,2.80103 -6.60354,7.48109 -1.17002,2.38109 -2.63337,4.87244 -3.25188,5.53633 -2.48253,2.66469 -21.073525,6.26418 -22.903285,4.43442 z m 45.683625,-182.08676 2.97516,-0.68675 0.41022,-5.24383 c 0.32467,-4.15026 0.137,-6.72855 -0.89989,-12.36325 -1.16445,-6.327921 -1.27404,-8.470185 -0.98574,-19.269417 0.17839,-6.682501 0.14262,-12.143059 -0.0795,-12.134575 C 126.60714,69.664964 106.8,90.465765 106.8,91.778013 c 0,2.078394 6.70623,16.633127 9.82431,21.321987 4.93202,7.41661 4.85536,7.3683 9.85932,6.21325 z m 64.80641,-2.74426 c 3.09173,-2.28178 9.17551,-7.35082 10.60997,-8.84029 3.4516,-3.58397 8.7,-10.375097 8.7,-11.257313 0,-0.253884 -2.4975,-2.33514 -5.55,-4.625022 -3.0525,-2.289876 -7.575,-5.825136 -10.05,-7.85613 -7.53971,-6.187104 -6.25007,-5.981892 -13.10513,-2.085348 -5.49855,3.125484 -9.69487,6.873846 -9.69487,8.659932 0,0.34935 -0.21422,0.635184 -0.47605,0.635184 -0.76658,0 -1.7217,4.394172 -1.85585,8.53809 -0.10688,3.301437 0.14176,4.328337 1.79121,7.397747 1.05342,1.96029 2.5368,4.77916 3.2964,6.26416 0.7596,1.485 1.39531,2.39139 1.41269,2.0142 0.0174,-0.3772 0.40238,-0.82809 0.85557,-1.002 1.05685,-0.40555 8.35317,2.21924 8.65077,3.11204 0.40082,1.20247 3.14834,0.71782 5.41529,-0.95525 z"
       id="path3420"
       inkscape:connector-curvature="0" />
       <!-- This path is for the inside colouring -->
    <path
       style="fill:#000000"
       d="m 80.792871,301.35027 c -0.4917,-0.79558 0.43986,-1.50634 4.022358,-3.06894 1.603374,-0.69935 3.813138,-2.05992 4.91058,-3.02349 1.097442,-0.96357 2.533266,-1.92267 3.190728,-2.13134 1.15683,-0.36716 2.483466,-4.42075 2.483466,-7.58832 0,-0.66152 0.909942,-3.95573 2.022096,-7.32047 1.702086,-5.14955 2.079096,-7.31209 2.382318,-13.66498 0.198123,-4.151 0.753443,-9.956 1.234053,-12.9 1.36922,-8.38736 2.20412,-34.309 1.49617,-46.45272 -0.19844,-3.40394 0.0114,-4.39607 1.64986,-7.8 1.03246,-2.145 3.29313,-8.16639 5.02369,-13.38087 1.8677,-5.62767 5.03573,-13.30896 7.79499,-18.9 4.70922,-9.54216 8.63589,-16.48007 9.07739,-16.03856 0.13308,0.13308 0.70411,-0.56328 1.26895,-1.54746 0.62265,-1.08491 0.73633,-1.6427 0.28873,-1.41677 -0.40603,0.20495 -0.30645,0.0151 0.22129,-0.42185 0.52775,-0.43697 1.04223,-1.0645 1.1433,-1.3945 0.10105,-0.33 0.54676,-1.46883 0.99045,-2.53072 0.4437,-1.06191 0.80671,-2.34807 0.80671,-2.85815 0,-0.51007 0.32073,-1.44098 0.71274,-2.06868 0.55647,-0.89106 0.53542,-1.67852 -0.096,-3.59185 -0.8555,-2.59218 -1.17699,-2.8503 -2.2338,-1.79349 -0.73568,0.73567 -6.53367,-0.27859 -9.1829,-1.60639 -2.4403,-1.22309 -5.43571,-4.76955 -12.88106,-15.25072 -7.496671,-10.5534 -12.319471,-19.250361 -12.617719,-22.753533 -0.33765,-3.965916 5.12595,-12.540264 13.793179,-21.646465 2.35569,-2.475 5.18756,-5.715 6.29303,-7.2 2.91176,-3.911388 11.42669,-12.535533 13.41243,-13.584465 1.0128,-0.534989 2.9529,-0.842642 4.8,-0.761162 1.70508,0.07522 3.70552,-0.05877 4.44542,-0.297742 1.27416,-0.411527 1.29817,-0.525588 0.45424,-2.157557 -0.49006,-0.947684 -0.71308,-2.212664 -0.49558,-2.811068 0.8532,-2.347488 3.82249,-5.443292 5.55276,-5.789346 2.4624,-0.492479 3.42785,-2.422401 2.17123,-4.34024 -0.99957,-1.52555 -0.93667,-1.77321 1.43725,-5.658421 0.95048,-1.555579 3.03482,-6.351638 3.03482,-6.983107 0,-0.33233 0.82214,-2.301431 1.82696,-4.37578 2.13739,-4.412374 6.80556,-9.2287542 9.9509,-10.2668068 2.69655,-0.8899419 8.48105,-0.3791339 11.18719,0.9878992 4.00478,2.0230531 7.98653,5.4912166 8.96992,7.8129496 1.05179,2.483206 1.97266,6.545641 1.81907,8.024845 -0.36095,3.476279 -0.22637,9.794236 0.21542,10.113229 0.29461,0.212724 1.03768,1.900486 1.65126,3.750582 0.82988,2.502305 1.00777,4.147838 0.69457,6.425094 l -0.42104,3.061282 2.75288,1.940407 c 1.51408,1.067224 2.7711,2.225932 2.79337,2.574907 0.0223,0.348975 0.157,1.530261 0.29939,2.625081 0.33087,2.543946 -0.57474,4.213817 -2.79053,5.145485 l -1.75616,0.73841 5.8534,4.74542 c 3.21938,2.609976 7.20341,5.989614 8.85341,7.510308 1.65,1.520688 5.06802,4.177794 7.59559,5.904673 8.92804,6.099768 20.14873,19.30557 18.66154,21.96303 -0.26499,0.47352 -2.90625,3.065171 -5.86947,5.759211 -5.06006,4.60041 -12.67352,9.95595 -23.08766,16.24055 -9.54765,5.7617 -11.18012,6.50233 -14.33216,6.50233 -1.64836,0 -3.15168,0.25025 -3.34071,0.5561 -0.18903,0.30586 0.32399,2.60149 1.14004,5.10139 0.94177,2.88505 1.71524,7.2295 2.11753,11.89391 0.34859,4.04173 0.7816,8.83979 0.96224,10.66233 0.25711,2.59412 -0.12391,5.06976 -1.75457,11.4 -3.55196,13.78879 -5.07644,35.96615 -3.09237,44.98628 0.99256,4.51247 1.09618,9.90533 0.30701,15.9776 -0.6848,5.26923 -6.20777,30.40158 -7.76228,35.3224 -0.62549,1.98 -1.29191,4.88715 -1.48094,6.46034 -0.18901,1.57318 -0.71182,3.59818 -1.16178,4.5 -0.56247,1.12732 -0.86289,4.54258 -0.96145,10.93011 -0.0788,5.10975 -0.28775,9.52409 -0.46424,9.80966 -0.6978,1.12906 -7.80561,3.99897 -9.90522,3.99942 -2.47393,5.2e-4 -3.10181,-0.72089 -3.78169,-4.34496 -0.31877,-1.69919 0.0795,-3.81835 1.68954,-8.98896 3.69796,-11.87626 4.60397,-15.79544 5.47122,-23.66736 1.11623,-10.132 1.81833,-50.41415 0.91986,-52.77646 -0.79824,-2.0988 -1.58519,-9.81314 -2.36716,-23.20521 -0.32383,-5.54589 -0.98195,-11.48589 -1.4625,-13.2 -1.11775,-3.9871 -2.2085,-11.49826 -2.28834,-15.7582 -0.0342,-1.82459 -0.26222,-3.44107 -0.50671,-3.59218 -0.79059,-0.48861 -4.58345,4.51194 -6.54409,8.62781 -3.10174,6.51132 -5.81768,10.70423 -12.89401,19.90599 -7.16348,9.31507 -9.10275,12.195 -14.00554,20.79897 l -3.13346,5.49897 0.73616,8.15054 c 0.80917,8.95902 0.28852,15.06171 -1.92398,22.55152 -1.45775,4.93482 -4.07338,20.29866 -4.58178,26.91276 -0.35304,4.59297 -0.25959,5.27892 1.04429,7.6658 0.78761,1.44179 1.57266,2.62557 1.74455,2.63063 0.17189,0.005 0.65679,0.22766 1.07755,0.49469 0.59305,0.37637 0.40653,1.26854 -0.82975,3.96893 -1.45586,3.18003 -1.56013,3.89876 -1.1971,8.2518 0.48833,5.85547 -0.35883,5.70632 -1.4066,-0.24766 -0.42364,-2.40732 -0.95211,-4.71414 -1.17438,-5.12627 -0.76829,-1.42453 -4.1881,2.41536 -6.60531,7.41668 -1.29386,2.67704 -3.06097,5.42466 -3.92692,6.10582 -2.971023,2.337 -21.119079,5.51617 -22.132089,3.87708 z m 45.724479,-181.98859 2.97641,-0.63833 0.41792,-5.57422 c 0.32743,-4.36726 0.17653,-6.72993 -0.69688,-10.91168 -0.91416,-4.376823 -1.10162,-7.794153 -1.04159,-18.987447 0.0403,-7.507501 -0.0947,-13.642231 -0.3,-13.632733 -0.67367,0.0312 -9.4759,8.558335 -15.38945,14.908519 -4.89574,5.257218 -5.75358,6.470688 -5.51404,7.8 0.65939,3.659286 6.24704,15.775971 9.58009,20.774211 4.97636,7.46255 4.82155,7.3653 9.96754,6.26168 z m 66.7807,-4.25213 c 8.08785,-5.96722 18.15724,-17.240259 17.02945,-19.065057 -0.22229,-0.359676 -2.4497,-2.166702 -4.9498,-4.015614 -2.5001,-1.848912 -6.38571,-4.90665 -8.63469,-6.794976 -2.24898,-1.88832 -5.16244,-4.17717 -6.47435,-5.08632 -2.14935,-1.489506 -2.53204,-1.573614 -3.86887,-0.850296 -8.53386,4.61739 -10.19957,5.722944 -12.0798,8.017518 -1.16599,1.422936 -2.11998,2.856714 -2.11998,3.186174 0,0.329466 -0.31391,0.703662 -0.69758,0.831552 -0.38367,0.127884 -0.79789,0.757884 -0.9205,1.399998 -1.59483,8.352281 -1.36046,10.041881 2.35507,16.978191 2.89992,5.41368 3.29596,5.89533 4.26486,5.18686 0.89967,-0.65786 1.62972,-0.56089 4.63027,0.61501 1.9592,0.76781 3.98776,1.82158 4.50789,2.34171 0.52013,0.52014 1.17304,0.9457 1.45088,0.9457 0.27786,0 2.75607,-1.6607 5.50715,-3.69045 z"
       id="path3418"
       inkscape:connector-curvature="0" />
  </g>
</svg>
